# xmcd CD database file
#
# Track frame offsets:
#	150
#	16447
#	37810
#	58960
#	88777
#	110285
#	127577
#	159240
#	184290
#	207409
#
# Disc length: 3288 seconds
#
# Revision: 1
# Processed by: cddbd v1.4PL0 Copyright (c) Steve Scherf et al.
# Submitted via: CDex 1.40Beta9
#
DISCID=7c0cd60a
DTITLE=Dolly Varden - The Thrill of Gravity
DYEAR=1998
DGENRE=Country
TTITLE0=California Zephyr
TTITLE1=First Class Blackout
TTITLE2=Lucky 23
TTITLE3=The Old In and Out
TTITLE4=All I Deserve
TTITLE5=Dangerously Thin
TTITLE6=Sunflower Drag
TTITLE7=The Good Life
TTITLE8=I Can't Wait Anymore
TTITLE9=The Wheels Have Left the Road
EXTD=YEAR: 1998 ID3G: 2
EXTT0=
EXTT1=
EXTT2=
EXTT3=
EXTT4=
EXTT5=
EXTT6=
EXTT7=
EXTT8=
EXTT9=
PLAYORDER=
